<?xml version="1.0" encoding="UTF-8"?>
<svg id="Layer_1" data-name="Layer 1" xmlns="http://www.w3.org/2000/svg" viewBox="0 0 178.7 36.54">
  <defs>
    <style>
      .cls-1 {
        fill: #ed1d24;
      }

      .cls-2 {
        fill: #fff;
      }
    </style>
  </defs>
  <path class="cls-2" d="M12.16,33.35s-.06-.04-.04-.07c.1-.2.26-.45.5-.7.31-.32.63-.51.85-.62,0,0,.01,0,.02,0,22.62-.4,33.93-.2,33.93-.78s-10.97-.11-32.91.04c-.04,0-.06-.04-.04-.07.15-.28.38-.62.69-.96.34-.37.68-.63.95-.82,0,0,.02,0,.03,0,19.83-.38,29.74-.37,29.74-.85s-9.32-.27-27.94-.27c-.04,0-.06-.04-.04-.08.18-.25.47-.59.92-.88.66-.43,1.3-.51,1.63-.54,0,0,0,0,0,0h26.22s.02,0,.03,0c1.35.97,2.7,1.94,4.04,2.91.21.15.46-.15.26-.33-1.53-1.39-3.06-2.78-4.58-4.16,0,0-.02-.01-.03-.01l-27.43.54s-.01,0-.02,0c-1.26.5-2.74,1.21-4.29,2.22-2.43,1.59-4.18,3.35-5.36,4.75,0,.01-.02.02-.04.02-2.46.04-4.91.09-7.37.13-.03,0-.05-.02-.05-.05l-.19-10.7c0-1.03.16-3.45,1.88-5.2,1.73-1.75,4.06-1.87,7.01-2.02,1.76-.09,4.44-.02,7.66.9,0,0,.02,0,.02.02,1.67,2.05,3.35,4.11,5.02,6.16.2.24.58,0,.45-.28-.75-1.65-1.49-3.3-2.24-4.95-.31-.59-.29-1.3.07-1.84.4-.62,1.17-.93,1.91-.77,0,0,0,0,0,0,8.18-.19,14.44-.24,17.41-.21.82,0,2.45.04,2.93.98.34.67-.04,1.52-.32,2.02,0,0,0,0,0,0-.68,1.56-1.37,3.13-2.05,4.69-.09.21.19.37.32.19,1.13-1.49,2.27-2.98,3.4-4.47,0,0,0,0,0,0,.35-.71.98-1.7,2.08-2.43,1.31-.86,2.61-.9,4.02-.98,1.55-.09,3.68-.26,6.36-.61.06,0,.05-.1,0-.1-3.76-.02-7.53-.04-11.29-.07,0,0-.01,0-.02,0l-2.81-1.39s-.01,0-.02,0l-16.38.28s-.07-.05-.04-.08l7.17-7.93s.02-.02.04-.02h9.96s0,0,0,0c1.56.11,3.75.46,6.17,1.47,3.27,1.37,5.48,3.35,6.76,4.73.04.04.11,0,.08-.06-.73-1.17-1.85-2.64-3.52-3.98-3.78-3.03-7.91-3.42-9.56-3.49,0,0,0,0,0,0-6.95.12-13.91.23-20.86.35,0,0,0,0,0,0-1.1-.06-3.26-.04-5.65,1.05-2.92,1.32-4.49,3.46-5.09,4.39,0,0,0,0,0,0-1.09,1.33-2.17,2.67-3.26,4-.19.23-.05.58.25.61,1.33.14,2.65.29,3.98.43.06,0,.06.1,0,.1-1.88.03-3.76.06-5.64.09-.56.01-3.19.14-5.27,2.27-1.66,1.7-2,3.67-2.08,4.35,0,0,0,0,0,0,.03,4.17.06,8.34.09,12.51,0,.03-.02.05-.05.05-.17,0-.34,0-.5,0-.03,0-.05.02-.05.05-.01.24,0,.69.23,1.19.23.49.57.78.75.92,0,0,.02,0,.03,0,2.84-.07,5.68-.14,8.52-.21.03,0,.05.02.05.05,0,.53,0,1.05,0,1.58,0,.03.02.05.05.05.48.01.95.03,1.43.04.03,0,.05-.02.05-.05v-1.94s.02-.05.05-.05c17.21-.13,51.5.5,51.5-.44s-33.61-.46-50.5-.71M23.5,4.06c.15-.17.37-.26.6-.26h3.75c.16,0,.22.21.09.29l-10.9,7.19c-.07.04-.14-.04-.09-.1l6.54-7.12ZM12.07,11.76c-.16,0-.27-.18-.19-.32.67-1.23,2.02-3.24,4.44-4.81,1.42-.92,2.79-1.42,3.84-1.69.12-.03.22.1.14.21l-4.57,6.56s-.07.06-.11.06h-3.55Z"/>
  <path class="cls-2" d="M.02,10.98c-.08-.39.16-.76.54-.85.74-.17,1.68-.31,2.77-.3,1.19.02,2.19.22,2.93.42.08.02.15.05.21.1.25.17.74.57.95,1.28.06.22.09.42.09.61,0,.4-.32.73-.72.73h-3.94s-.05,0-.07,0c-.23.02-1.29.09-2.1-.74-.4-.41-.58-.88-.66-1.26"/>
  <path class="cls-2" d="M18.21,24.63c-1.12-1.39-3.06-3.38-6.02-4.89-3.49-1.79-6.71-2.04-8.47-2.05-.18,0-.34.1-.42.25-.33.59-.73,1.5-.9,2.66-.18,1.16-.06,2.15.07,2.8.03.14.12.26.24.33.56.3,1.36.69,2.34,1.03,2.62.92,4.79.95,7.42.96,1.4,0,3.25-.05,5.42-.32.38-.05.55-.49.32-.78M16.35,24.93c-2.5-.35-4.52-.4-6.04-.35-1.45.04-3.42.2-5.44-.91-.6-.33-1.06-.69-1.38-.98-.1-.09-.17-.21-.19-.35-.06-.38-.09-.84-.06-1.35.04-.74.21-1.37.38-1.85.08-.22.29-.37.52-.37,1.56-.02,3.94.15,6.58,1.17,2.82,1.09,4.83,2.72,6.11,4.01.38.39.05,1.04-.49.97"/>
  <path class="cls-2" d="M4.52,19.71s.05-.03.05,0c0,.92.16,2.24,1.07,2.88.43.3.84.31,2.09.44,1.19.12,2.37.31,3.56.42,1.05.1,2.52.27,4.32.62.03,0,.03.05,0,.05-1.61.03-3.38-.02-5.29-.18-1.77-.15-3.41-.39-4.89-.67,0,0,0,0,0,0-.12,0-.22-.01-.3-.05-.85-.35-.71-2.5-.59-3.51"/>
  <path class="cls-2" d="M8.4,29.04c0,.83-.68,1.51-1.51,1.51s-1.51-.68-1.51-1.51.68-1.51,1.51-1.51,1.51.68,1.51,1.51"/>
  <path class="cls-2" d="M7.44,26.89c.1,0,.12-.13.03-.16-1.08-.37-2.28.02-2.84.89-.62.96-.39,2.37.58,3.18.08.06.18-.03.12-.11-.57-.79-.63-1.86-.11-2.68.47-.75,1.34-1.17,2.22-1.11"/>
  <path class="cls-2" d="M60.39,18.85c-4.02,1.77-8.04,3.54-12.06,5.31-.23.1-.15.45.1.44,4.06-.19,10.04-.42,10.63-.15.1.05.36.17.35.31,0,.16-.16.3-.35.28-3.94.08-7.88.15-11.82.23-.17-.06-.38-.17-.46-.37,0,0-.14-.32.19-.83.59-.95,10.99-4.64,13.31-5.46.07-.02.15.03.16.09.02.05,0,.11-.05.15"/>
  <polygon class="cls-2" points="160.52 20.23 158.32 20.23 157.71 24.58 150.4 24.58 150.98 20.23 141.38 20.23 142.06 15.32 150.12 .4 156.3 2.66 150.19 14.64 151.81 14.64 153.35 9.83 159.76 9.83 159.08 14.64 161.27 14.64 160.52 20.23"/>
  <polygon class="cls-2" points="178.01 6.13 167.24 25.34 160.73 23.04 170.12 6.75 161.69 6.75 162.47 1.19 178.7 1.19 178.01 6.13"/>
  <polygon class="cls-1" points="65.57 18.66 76.24 6.6 68.21 6.6 68.99 .71 85.96 .71 85.14 6.5 74.68 18.28 83.89 18.28 82.3 24.34 64.83 24.34 65.57 18.66"/>
  <polygon class="cls-1" points="101.9 6.09 94.56 6.09 94.05 9.79 100.48 9.79 99.8 14.97 95.24 14.97 93.34 14.97 92.79 18.93 100.68 18.93 99.94 24.34 84.36 24.34 87.65 .71 103.46 .71 101.9 6.09"/>
  <path class="cls-1" d="M118.29,15l4.1,9.35h-8.33l-2.84-8.06h-.85l-1.12,8.06h-7.65l3.28-23.63h9.01c6.03,0,9.21,2.74,9.21,6.67,0,2.91-.64,5.28-4.81,7.62M111.08,11.11h1.42c1.96,0,2.71-1.66,2.71-3.18,0-1.32-.85-1.9-2.3-1.9h-1.12l-.71,5.08Z"/>
  <path class="cls-1" d="M145.21,9.79c0,6.4-2.88,15.3-12.93,15.3-6.3,0-9.58-3.79-9.58-9.85,0-6.53,2.98-15.24,12.93-15.24,6.33,0,9.58,3.69,9.58,9.79M130.58,15.91c0,2.68.68,3.69,2.3,3.69,3.89,0,4.47-7.38,4.47-10.53,0-2.64-.71-3.59-2.34-3.59-3.93,0-4.44,7.45-4.44,10.43"/>
  <polygon class="cls-2" points="65.52 33.29 66.92 33.29 66.92 33.83 64.84 33.83 64.84 29.7 65.52 29.7 65.52 33.29"/>
  <path class="cls-2" d="M69.98,32.99h-1.73l-.3.85h-.71l1.48-4.14h.79l1.48,4.14h-.71l-.3-.85ZM69.79,32.44l-.67-1.92-.68,1.92h1.35Z"/>
  <polygon class="cls-2" points="75.2 29.7 73.64 33.83 72.86 33.83 71.3 29.7 72.02 29.7 73.25 33.14 74.48 29.7 75.2 29.7"/>
  <path class="cls-2" d="M78.26,32.99h-1.73l-.3.85h-.71l1.48-4.14h.79l1.48,4.14h-.71l-.3-.85ZM78.07,32.44l-.67-1.92-.68,1.92h1.35Z"/>
  <path class="cls-2" d="M82.46,33.12c.19-.11.34-.27.45-.49h.82c-.14.37-.37.65-.67.87-.3.21-.65.33-1.05.37v.26c.23,0,.42.05.56.16.14.11.21.26.21.46s-.07.36-.21.47c-.14.12-.32.18-.54.18h-.79v-.43h.65c.11,0,.19-.02.25-.05.06-.03.08-.09.08-.17s-.03-.14-.08-.17c-.06-.03-.14-.05-.25-.05h-.33v-.67c-.35-.04-.67-.15-.95-.33-.29-.19-.51-.43-.68-.74-.16-.31-.25-.65-.25-1.03,0-.4.09-.77.28-1.09.19-.32.44-.57.77-.75.32-.18.68-.27,1.06-.27.44,0,.83.11,1.18.32.34.22.59.52.75.92h-.82c-.11-.22-.26-.38-.45-.49-.19-.11-.41-.16-.66-.16-.27,0-.52.06-.73.18-.21.12-.38.3-.5.53-.12.23-.18.5-.18.8s.06.57.18.8c.12.23.29.41.5.53.21.13.46.19.73.19.25,0,.47-.05.66-.16"/>
  <path class="cls-2" d="M87.01,32.99h-1.73l-.3.85h-.71l1.48-4.14h.79l1.48,4.14h-.71l-.3-.85ZM85.4,28.83c.12-.12.27-.18.45-.18.08,0,.14.01.2.04.06.02.12.06.2.11.06.04.11.07.15.09.04.02.09.03.14.03.07,0,.12-.02.17-.06.05-.04.07-.1.09-.19h.38c-.03.23-.11.4-.23.52-.12.12-.27.18-.45.18-.08,0-.14-.01-.2-.04-.06-.03-.12-.06-.2-.11-.07-.04-.13-.07-.16-.09-.04-.02-.08-.03-.13-.03-.07,0-.12.02-.17.07-.05.04-.07.11-.09.19h-.38c.03-.23.11-.4.23-.52M86.82,32.44l-.67-1.92-.68,1.92h1.35Z"/>
  <path class="cls-2" d="M89.49,33.61c-.32-.18-.58-.43-.77-.76-.19-.32-.28-.69-.28-1.09s.09-.77.28-1.09c.19-.32.44-.57.77-.75.32-.18.68-.27,1.06-.27s.75.09,1.07.27c.32.18.58.43.77.75.19.32.28.68.28,1.09s-.09.77-.28,1.09c-.19.32-.44.58-.77.76-.32.18-.68.27-1.07.27s-.74-.09-1.06-.27M91.28,33.1c.21-.13.38-.3.5-.54.12-.23.18-.5.18-.81s-.06-.57-.18-.8c-.12-.23-.29-.41-.5-.53-.21-.12-.46-.18-.73-.18s-.52.06-.73.18c-.21.12-.38.3-.5.53-.12.23-.18.5-.18.8s.06.57.18.81c.12.23.29.41.5.54.21.13.46.19.73.19s.52-.06.73-.19"/>
  <polygon class="cls-2" points="95.56 30.24 95.56 31.46 96.99 31.46 96.99 32.01 95.56 32.01 95.56 33.28 97.17 33.28 97.17 33.83 94.88 33.83 94.88 29.69 97.17 29.69 97.17 30.24 95.56 30.24"/>
  <polygon class="cls-2" points="101.77 30.24 101.77 31.46 103.2 31.46 103.2 32.01 101.77 32.01 101.77 33.28 103.38 33.28 103.38 33.83 101.1 33.83 101.1 29.69 103.38 29.69 103.38 30.24 101.77 30.24"/>
  <path class="cls-2" d="M104.83,33.73c-.22-.1-.4-.24-.52-.41-.13-.18-.19-.39-.19-.62h.73c.02.18.09.33.21.44.13.12.3.17.53.17s.42-.06.55-.17c.13-.11.2-.26.2-.44,0-.14-.04-.25-.12-.34-.08-.09-.18-.15-.3-.2-.12-.05-.29-.1-.5-.15-.27-.07-.49-.14-.66-.22-.17-.07-.31-.19-.43-.34-.12-.15-.18-.36-.18-.62,0-.24.06-.45.18-.63.12-.18.29-.32.5-.41.21-.1.46-.14.74-.14.4,0,.73.1.99.3.26.2.4.48.43.82h-.75c-.01-.15-.08-.28-.21-.39-.13-.11-.3-.16-.52-.16-.19,0-.35.05-.48.15-.12.1-.18.24-.18.43,0,.13.04.23.12.31.08.08.18.15.29.19s.28.1.49.15c.27.08.5.15.67.23.17.08.32.19.44.35.12.16.18.37.18.63,0,.21-.06.41-.17.6-.11.19-.28.34-.49.45-.22.11-.47.17-.77.17-.28,0-.53-.05-.75-.15"/>
  <polygon class="cls-2" points="110.48 29.7 110.48 30.25 109.38 30.25 109.38 33.83 108.7 33.83 108.7 30.25 107.6 30.25 107.6 29.7 110.48 29.7"/>
  <path class="cls-2" d="M111.85,30.24v1.21h1.43v.55h-1.43v1.27h1.61v.55h-2.29v-4.14h2.29v.55h-1.61ZM112.9,28.81l-1.32.65v-.5l1.32-.73v.58Z"/>
  <polygon class="cls-2" points="116.96 29.7 116.96 30.25 115.86 30.25 115.86 33.83 115.18 33.83 115.18 30.25 114.07 30.25 114.07 29.7 116.96 29.7"/>
  <rect class="cls-2" x="117.65" y="29.7" width=".68" height="4.14"/>
  <path class="cls-2" d="M119.27,30.67c.19-.32.44-.57.77-.75.32-.18.68-.27,1.06-.27.44,0,.83.11,1.18.32.34.22.59.52.75.92h-.82c-.11-.22-.26-.38-.45-.49-.19-.11-.41-.16-.66-.16-.27,0-.52.06-.73.18-.21.12-.38.3-.5.53-.12.23-.18.5-.18.8s.06.57.18.8c.12.23.29.41.5.53.21.13.46.19.73.19.25,0,.47-.05.66-.16.19-.11.34-.27.45-.49h.82c-.15.4-.4.7-.75.92-.34.21-.74.32-1.18.32-.39,0-.74-.09-1.07-.27-.32-.18-.58-.43-.76-.75-.19-.32-.28-.68-.28-1.09s.09-.77.28-1.09"/>
  <path class="cls-2" d="M126.31,32.99h-1.73l-.3.85h-.71l1.48-4.14h.79l1.48,4.14h-.71l-.3-.85ZM126.12,32.44l-.67-1.92-.68,1.92h1.35Z"/>
  <path class="cls-2" d="M132.01,32.99h-1.73l-.3.85h-.71l1.48-4.14h.79l1.48,4.14h-.71l-.3-.85ZM131.82,32.44l-.67-1.92-.68,1.92h1.35Z"/>
  <path class="cls-2" d="M134.34,29.7v2.64c0,.31.08.55.25.71.16.16.39.24.69.24s.53-.08.69-.24c.16-.16.25-.39.25-.71v-2.64h.68v2.63c0,.34-.07.62-.22.86-.15.23-.34.41-.59.52-.25.12-.52.17-.82.17s-.57-.06-.81-.17c-.24-.12-.44-.29-.58-.52-.14-.23-.21-.52-.21-.86v-2.63h.68Z"/>
  <polygon class="cls-2" points="140.45 29.7 140.45 30.25 139.35 30.25 139.35 33.83 138.67 33.83 138.67 30.25 137.56 30.25 137.56 29.7 140.45 29.7"/>
  <path class="cls-2" d="M141.96,33.61c-.32-.18-.58-.43-.77-.76-.19-.32-.28-.69-.28-1.09s.09-.77.28-1.09c.19-.32.44-.57.77-.75.32-.18.68-.27,1.06-.27s.75.09,1.07.27c.32.18.58.43.77.75.19.32.28.68.28,1.09s-.09.77-.28,1.09c-.19.32-.44.58-.77.76-.32.18-.68.27-1.07.27s-.74-.09-1.06-.27M143.75,33.1c.21-.13.38-.3.5-.54.12-.23.18-.5.18-.81s-.06-.57-.18-.8c-.12-.23-.29-.41-.5-.53-.21-.12-.46-.18-.73-.18s-.52.06-.73.18c-.21.12-.38.3-.5.53-.12.23-.18.5-.18.8s.06.57.18.81c.12.23.29.41.5.54.21.13.46.19.73.19s.52-.06.73-.19"/>
  <polygon class="cls-2" points="150.16 29.7 150.16 33.83 149.48 33.83 149.48 31 148.22 33.83 147.75 33.83 146.48 31 146.48 33.83 145.8 33.83 145.8 29.7 146.53 29.7 147.99 32.94 149.43 29.7 150.16 29.7"/>
  <path class="cls-2" d="M151.88,33.61c-.32-.18-.58-.43-.77-.76-.19-.32-.28-.69-.28-1.09s.09-.77.28-1.09c.19-.32.44-.57.77-.75.32-.18.68-.27,1.06-.27s.75.09,1.07.27c.32.18.58.43.77.75.19.32.28.68.28,1.09s-.09.77-.28,1.09c-.19.32-.44.58-.77.76-.32.18-.68.27-1.07.27s-.74-.09-1.06-.27M153.67,33.1c.21-.13.38-.3.5-.54.12-.23.18-.5.18-.81s-.06-.57-.18-.8c-.12-.23-.29-.41-.5-.53-.21-.12-.46-.18-.73-.18s-.52.06-.73.18c-.21.12-.38.3-.5.53-.12.23-.18.5-.18.8s.06.57.18.81c.12.23.29.41.5.54.21.13.46.19.73.19s.52-.06.73-.19"/>
  <polygon class="cls-2" points="158.39 29.7 158.39 30.25 157.29 30.25 157.29 33.83 156.61 33.83 156.61 30.25 155.51 30.25 155.51 29.7 158.39 29.7"/>
  <rect class="cls-2" x="159.08" y="29.7" width=".68" height="4.14"/>
  <polygon class="cls-2" points="164.22 29.7 162.66 33.83 161.88 33.83 160.32 29.7 161.04 29.7 162.27 33.14 163.5 29.7 164.22 29.7"/>
  <path class="cls-2" d="M167.28,32.99h-1.73l-.3.85h-.71l1.48-4.14h.79l1.48,4.14h-.71l-.3-.85ZM167.09,32.44l-.67-1.92-.68,1.92h1.35Z"/>
</svg>